<svg id="Laag_1" data-name="Laag 1" xmlns="http://www.w3.org/2000/svg" viewBox="0 0 54.03 55.03"><defs><style>.cls-1{fill:#e15799;}</style></defs><title>Chef Hat</title><rect class="cls-1" x="9.39" y="45.42" width="35.26" height="9.6"/><path class="cls-1" d="M48.1,9.14a10.88,10.88,0,0,0-5.88,1.7A10.95,10.95,0,0,0,32.05,4a10.92,10.92,0,0,0-7.21,2.71,11.08,11.08,0,0,0-3,4.16A10.87,10.87,0,0,0,16,9.14,11,11,0,0,0,14.42,31V45.23H49.68V31A11,11,0,0,0,48.1,9.14Z" transform="translate(-5.04 -3.97)"/></svg>