<svg id="Laag_1" data-name="Laag 1" xmlns="http://www.w3.org/2000/svg" viewBox="0 -3 18 26" width="24px" height="24px">
    <defs><style>.cls-1{fill:#e3e3e3;}</style></defs><title>Chef Hat2</title>
    <rect class="cls-1" x="3.13" y="14.86" width="11.75" height="3.14"/>
    <path class="cls-1" d="M14.35,1.69a3.61,3.61,0,0,0-2,.56,3.49,3.49,0,0,0-1-1.36,3.68,3.68,0,0,0-4.8,0,3.49,3.49,0,0,0-1,1.36,3.61,3.61,0,0,0-2-.56A3.63,3.63,0,0,0,0,5.28,3.61,3.61,0,0,0,3.13,8.83V13.5H14.87V8.83A3.61,3.61,0,0,0,18,5.28,3.63,3.63,0,0,0,14.35,1.69Z" transform="translate(0 0)"/></svg>